<?xml version="1.0" encoding="utf-8"?>
<!-- Generator: Adobe Illustrator 21.0.0, SVG Export Plug-In . SVG Version: 6.00 Build 0)  -->
<svg version="1.1" id="Layer_1" xmlns="http://www.w3.org/2000/svg" xmlns:xlink="http://www.w3.org/1999/xlink" x="0px" y="0px"
	 viewBox="0 0 1920 1080" style="enable-background:new 0 0 1920 1080;" xml:space="preserve">
<style type="text/css">
	.st0{fill:#CCECF7;}
	.st1{fill:#144164;}
	.st2{fill:#0BB8E7;}
	.st3{fill:#FAB928;}
	.st4{fill:#E7E7DC;}
	.st5{fill:#90D8E4;}
	.st6{fill:#053250;}
	.st7{fill:#E9ECEF;}
	.st8{fill:#1B476D;}
	.st9{fill:#96CDDB;}
	.st10{fill:#F7CD6D;}
	.st11{fill:#2DCCF1;}
	.st12{fill:#E62645;stroke:#053250;stroke-width:2.1385;}
	.st13{fill:#CC0000;stroke:#053250;stroke-width:2.1385;}
	.st14{fill:none;stroke:#053250;stroke-width:2.1385;}
	.st15{fill:#DCD1A7;}
</style>
<g>
	<path class="st0" d="M909.9,190.2c50-1,100.1-2.1,150.1-3.1c0.7,35.6,1.4,71.2,2.1,106.7c-7.4,0-14.7,0-22.1,0
		c-1.5-9.3-1-18.6-1-27.9c0-3.6-1-5.1-4.8-5c-3.7,0.1-4.4,1.8-4.4,5c0.1,9.3,0,18.7,0.1,28c-7,0-13.9,0-20.9,0
		c-0.4-19.4-0.7-38.9-1.1-58.3c0-0.8,0-1.7,0-2.5c-0.1-1.2-0.2-2.5-1.7-2.6c-1.8-0.2-2.1,1.2-2.2,2.6c-0.1,1.3-0.1,2.7,0,4
		c0.3,18.9,0.6,37.9,1,56.8c-18.6,0-37.3,0-55.9,0c-0.2-18.8-1.5-37.6-1.1-56.4c0-0.8,0-1.7,0-2.5c-0.1-1.7-0.3-3.6-2.6-3.4
		c-2.3,0.3-2.2,2.2-2,3.9c1.7,19.4-0.1,38.9,1.7,58.4c-25.3,0-50.6,0-75.8,0c0-5.2,0-10.3-0.1-15.5c-0.3-13.8-0.6-27.5-1-41.3
		c0-1.4,0.3-3.4-1.8-3.5c-2.5-0.2-2.1,2-2.2,3.6c-0.1,1.2,0,2.3,0,3.5c0.3,17.8,0.6,35.5,0.9,53.3c-10.6,0-21.2,0-31.8,0
		c-0.7-33.9-1.5-67.8-2.2-101.7c1.6,0,3.2-0.1,4.8-0.1c8.3-0.1,16.5-0.2,24.8-0.3c15.8-1,31.7-0.4,47.5-0.8
		C908.6,190.8,909.2,190.4,909.9,190.2z M1029,241.2C1029,241.2,1029,241.2,1029,241.2c0.1,2.5,0.2,5,0,7.5
		c-0.3,3.7,1.6,4.4,4.8,4.4c3.4,0,5.5-0.7,5.1-4.7c-0.4-4.5-0.8-8.9-0.8-13.4c0-3.4-0.8-5.2-4.7-5.2c-4.1,0-4.7,2.1-4.4,5.4
		C1029.1,237.2,1029,239.2,1029,241.2z M978.1,242.9C978.1,242.9,978,242.9,978.1,242.9c-0.1-2.8-0.2-5.6-0.1-8.4
		c0.1-3.5-2.2-3.5-4.6-3.5c-2.6,0-4.5,0.4-4.5,3.7c0.1,4.8,0.2,9.6,0,14.4c-0.1,3.4,0.8,5.1,4.7,5.1c4.1,0,4.7-2.1,4.5-5.3
		C978,246.9,978.1,244.9,978.1,242.9z M895.1,264.2c0-8.2-0.5-8.7-5.9-8.2c-4.4,0.4-3.5,3.7-3,5.9c0.8,3.4-3.2,8.6,3,9.9
		C894.3,272.9,895.1,271.7,895.1,264.2z M895,241.2c0-0.9-0.1-1.4,0-1.9c0.6-4.4-0.6-6.7-5.9-6.5c-6,0.3-3.2,4-3.2,6.7
		c0,1.2,0.2,2.3,0,3.5c-0.6,4.5,1.9,5.4,5.7,5C897.1,247.6,894.1,243.3,895,241.2z"/>
	<path class="st1" d="M833.1,293.8c10.6,0,21.2,0,31.8,0c1.4,0,2.8,0,4.1,0c25.3,0,50.6,0,75.8,0c1.4,0,2.8,0,4.1,0
		c18.6,0,37.3,0,55.9,0c1.4,0,2.8,0,4.1,0c7,0,13.9,0,20.9,0c3.4,0,6.7,0,10.1,0c7.4,0,14.7,0,22.1,0c14.1,0,28.1,0,42.2,0
		c1.6,0,3.2,0,4.8,0c5.9,0.1,11.7,0.1,17.6,0.2c0.5,0,0.9,0.1,1.4,0.1c2.7,1,5.3,2,8,3l-0.1-0.1c8.7,6.7,11,15.7,11,26.3
		c-0.2,158-0.1,316-0.1,474c0,1.7,0,3.3,0,5c-0.2,8.4-3.6,15.1-10.6,19.8c-1,0.7-2.5,1-2.2,2.8c-0.4,0-0.7,0.1-1.1,0.1
		c-5.6,0.4-11.2,0.7-16.8,1.1c-14.1,0-28.1,0-42.2,0c-17.6,0-35.2,0-52.8,0c-1.4,0-2.7,0-4.1,0.1c-18.6,0-37.3-0.1-55.9-0.1
		c-1.7,0-3.4,0-5.1,0c-25.6,0-51.3,0-76.9,0.1c-1.4,0-2.7,0-4.1-0.1c-10,0-20.1,0-30.1,0c-10.7,0-21.5,0-32.2,0
		c-6.8,0-13.7,0-20.5,0c-5.9-0.1-11.9-0.4-17.8-0.1c-4.1,0.2-5.8-0.9-5.2-5.2c0.2-1.6-0.1-3.3-0.1-4.9c0.1-2.2,0.2-4.3,0.2-6.5
		c0-169.7,0-339.4,0-509.1c0-7.4-0.7-6.3,6.3-6.4c8.5-0.1,17-0.1,25.5-0.2C811.7,293.8,822.4,293.8,833.1,293.8z M777,559.5
		c0,83.8,0,167.7,0,251.5c0,7,0,7,7.2,7c71.3,0,142.7,0,214,0c41.8,0,83.7,0,125.5,0c9.1,0,15-5.8,15.3-14.8c0-0.8,0-1.7,0-2.5
		c0-160.5,0-321,0-481.5c0-1,0-2,0-3c-0.4-6.8-4.4-12-10.9-14c-3.2-1-6.5-1.3-9.9-1.3c-111.3,0-222.6,0-334,0c-7.2,0-7.2,0-7.2,7.5
		C777,392.2,777,475.8,777,559.5z"/>
	<path class="st0" d="M1021,826.2c17.6,0,35.2,0,52.8,0c0.4,18.5,0.8,37.1,1.2,55.6c-8.2,1-16.6-0.5-24.8,1.3
		c-17.7,0.3-35.5-0.1-53.2,0.7c-26.5,1.2-53.1,0.9-79.6,1.3c-2.1,0-4.3-0.5-6.3,0.9c-21.7-0.5-43.4,0.7-65.1,1
		c-0.4-20.3-0.8-40.5-1.1-60.8c10,0,20.1,0,30.1,0c0.3,11.6,0.7,23.3,1.1,34.9c0.1,1.7-1,4.7,2.2,4.5c2.6-0.1,1.8-2.8,1.7-4.5
		c-0.2-11.6,0.5-23.3-0.9-34.9c25.6,0,51.3,0,76.9-0.1c0.9,11,1.1,21.9,1.1,32.9c0,1.7-1,4.7,2.2,4.5c2.6-0.1,1.7-2.8,1.7-4.5
		c0.1-11,0-22,0-33c18.6,0,37.3,0.1,55.9,0.1c0,10.8,0.1,21.6,0.2,32.4c0,1.5-0.6,3.9,1.8,4c2.8,0.2,2.2-2.4,2.2-4.1
		C1021.1,847.7,1021.1,836.9,1021,826.2z"/>
	<path class="st2" d="M1104.3,293.7c-14.1,0-28.1,0-42.2,0c-0.7-35.6-1.4-71.2-2.1-106.7c6.1,0,12.2,0.2,18.3-0.2
		c11.1-0.6,18.7,4.2,23.2,14.2c2.2,10.9,0.8,22,1.8,33C1103.6,253.9,1103.9,273.8,1104.3,293.7z M1087,279.7
		c-1.1-4.9-0.9-11.3-1-17.6c0-13,0.4-25.9-1-38.8c-0.1-1.4,0.5-3.1-1.6-3.7c-4.3-1.2-7.5,1.1-7.4,5.6c0.7,17.3,1.2,34.5,1,51.8
		c0,2,0.1,4,0,6c-0.1,2.7,0.9,3.9,3.8,4C1086.4,287.3,1087,286.8,1087,279.7z"/>
	<path class="st2" d="M833.1,293.8c-10.7,0-21.4,0-32.2,0c-0.4-15.9-0.8-31.8-1.2-47.7c0.7-9.8-0.7-19.5-0.7-29.3
		c0-15.1,8.8-24.2,23.9-24.6c2.7-0.1,5.3-0.1,8-0.2C831.6,225.9,832.4,259.8,833.1,293.8z"/>
	<path class="st2" d="M1075,881.8c-0.4-18.5-0.8-37.1-1.2-55.6c14.1,0,28.1,0,42.2,0c0.1,4.3,0.2,8.5,0.3,12.8
		c-0.7,4.8,0.1,9.7,0.5,14.5c1.3,15.4-5.6,28-25.3,28.6C1086,882,1080.5,881.9,1075,881.8z"/>
	<path class="st2" d="M844.8,826.2c0.4,20.3,0.8,40.5,1.1,60.8c-3.6,0-7.3-0.1-10.9,0.1c-6.3,0.3-11.1-2.7-15.8-6.2
		c-4.8-6-6.1-12.9-6.1-20.4c0-11.4-0.3-22.8-0.5-34.2C823.4,826.2,834.1,826.2,844.8,826.2z"/>
	<path class="st3" d="M1103.2,234c-0.9-11,0.4-22.1-1.8-33c3.2,0.2,6.3,0.3,9.5,0.6c12.3,1.4,20.3,11,19.7,23.4
		c-0.4,8.3-0.9,16.6-1.3,24.9c-0.9,14.6-1.8,29.3-2.6,43.9c-5.9-0.1-11.7-0.1-17.6-0.2c1-17,2.2-34,2.9-51
		C1112.4,233.3,1113.1,234.1,1103.2,234z"/>
	<path class="st3" d="M812.6,826.2c0.2,11.4,0.6,22.8,0.5,34.2c0,7.5,1.3,14.4,6.1,20.4c-23.1-0.8-29.7-8-28.5-30.9
		c0.4-7.9,0.8-15.9,1.3-23.8C798.9,826.2,805.8,826.2,812.6,826.2z"/>
	<path class="st4" d="M911,886c1.9-1.4,4.2-0.9,6.3-0.9c26.5-0.4,53.1-0.1,79.6-1.3c17.8-0.8,35.5-0.4,53.2-0.7
		c-0.1,3.6-0.2,7.3-0.3,10.9c-21.9-1.2-43.8-2.4-65.7-3.6c-13.4-0.7-26.9-1.5-40.3-2.3C932.9,887.4,922,886.6,911,886z"/>
	<path class="st3" d="M1049.9,893.9c0.1-3.6,0.2-7.3,0.3-10.9c8.2-1.8,16.6-0.3,24.8-1.3c5.5,0.1,11,0.2,16.5,0.3
		c-4.6,9.5-12.2,13.9-22.8,13.1C1062.4,894.7,1056.2,894.3,1049.9,893.9z"/>
	<path class="st5" d="M1116.3,839c-0.1-4.3-0.2-8.5-0.3-12.8c5.6-0.4,11.2-0.7,16.8-1.1c0.8,0.9,1.6,0.5,2.3-0.1l-0.2,0.1
		c0.8-0.1,2,0.4,2.1-1.1l-0.1,0.1c1.3,0.7,2.4-0.3,3.6-0.6c0.2,0.2,0.3,0.4,0.5,0.6c-0.9,2.9-3.6,3.9-5.8,5.1
		C1129,832.5,1123.3,837,1116.3,839z"/>
	<path class="st4" d="M909.9,190.2c-0.6,0.2-1.2,0.7-1.8,0.7c-15.8,0.4-31.7-0.2-47.5,0.8c0.2-1.5,0.3-2.9,0.5-4.4
		C877.3,188.2,893.6,189.2,909.9,190.2z"/>
	<path class="st3" d="M861,187.3c-0.2,1.5-0.3,2.9-0.5,4.4c-8.3,0.1-16.5,0.2-24.8,0.3c3.9-4.3,9-5.4,14.4-5.3
		C853.8,186.7,857.4,187,861,187.3z"/>
	<path class="st6" d="M1140.5,823.4c-1.2,0.3-2.2,1.3-3.6,0.6c10-6.3,13.1-15.6,13-27.2c-0.2-158.4-0.1-316.9-0.1-475.3
		c0-1.8,0.1-3.7-0.1-5.5c-0.7-8.2-4.4-14.6-11.4-18.9c-0.6-0.4-1.5-1.6-2.4-0.2c0,0,0.1,0.1,0.1,0.1c1-1.3-1.2-1.2-1-2.1
		c9.3,1.6,16.6,9.9,17.7,20.3c0.2,1.5,0.1,3,0.1,4.5c0,160.1,0,320.2,0.1,480.2C1152.9,810.1,1149.3,818,1140.5,823.4z"/>
	<path class="st7" d="M1135,294.9c-0.2,1,2,0.8,1,2.1c-2.7-1-5.3-2-8-3c1.5,0.6,2.9,0.4,4.4-0.1c0.6,1,1.7,0.9,2.6,1.1L1135,294.9z"
		/>
	<path class="st8" d="M1135.1,295.1c-1-0.2-2-0.1-2.6-1.1C1133.3,294.4,1134.5,294,1135.1,295.1z"/>
	<path class="st9" d="M1040.1,293.8c-3.4,0-6.7,0-10.1,0c0-9.3,0.1-18.7-0.1-28c0-3.2,0.6-4.9,4.4-5c3.8-0.1,4.8,1.5,4.8,5
		C1039.1,275.2,1038.6,284.5,1040.1,293.8z"/>
	<path class="st9" d="M949.1,293.8c-1.4,0-2.8,0-4.1,0c-1.8-19.4,0-38.9-1.7-58.4c-0.1-1.7-0.2-3.6,2-3.9c2.3-0.3,2.5,1.6,2.6,3.4
		c0,0.8,0.1,1.7,0,2.5C947.5,256.2,948.8,275,949.1,293.8z"/>
	<path class="st9" d="M1009.1,293.8c-1.4,0-2.8,0-4.1,0c-0.3-18.9-0.7-37.9-1-56.8c0-1.3,0-2.7,0-4c0.1-1.4,0.4-2.8,2.2-2.6
		c1.5,0.1,1.6,1.4,1.7,2.6c0.1,0.8,0,1.7,0,2.5C1008.3,254.9,1008.7,274.3,1009.1,293.8z"/>
	<path class="st9" d="M869.1,293.7c-1.4,0-2.8,0-4.1,0c-0.3-17.8-0.6-35.5-0.9-53.3c0-1.2-0.1-2.3,0-3.5c0.1-1.6-0.3-3.8,2.2-3.6
		c2.1,0.1,1.7,2.1,1.8,3.5c0.4,13.8,0.7,27.5,1,41.3C869.1,283.4,869,288.6,869.1,293.7z"/>
	<path class="st9" d="M1029,241.2c0-2,0.1-4,0-6c-0.2-3.2,0.3-5.4,4.4-5.4c3.9,0,4.7,1.7,4.7,5.2c0,4.5,0.4,9,0.8,13.4
		c0.4,4-1.6,4.7-5.1,4.7c-3.2,0-5.1-0.8-4.8-4.4C1029.2,246.2,1029.1,243.7,1029,241.2C1029,241.2,1029,241.2,1029,241.2z"/>
	<path class="st9" d="M978.1,242.9c0,2-0.1,4,0,6c0.2,3.3-0.4,5.3-4.5,5.3c-3.9,0-4.8-1.7-4.7-5.1c0.2-4.8,0.1-9.6,0-14.4
		c-0.1-3.3,1.8-3.8,4.5-3.7c2.5,0,4.8,0,4.6,3.5C977.9,237.3,978,240.1,978.1,242.9C978,242.9,978.1,242.9,978.1,242.9z"/>
	<path class="st9" d="M895.1,264.2c0,7.5-0.7,8.7-5.9,7.6c-6.2-1.3-2.2-6.5-3-9.9c-0.5-2.2-1.3-5.5,3-5.9
		C894.6,255.5,895.1,256,895.1,264.2z"/>
	<path class="st9" d="M895,241.2c-0.9,2.1,2.2,6.4-3.4,6.9c-3.8,0.3-6.3-0.5-5.7-5c0.1-1.1,0-2.3,0-3.5c0.1-2.7-2.7-6.4,3.2-6.7
		c5.2-0.3,6.4,2,5.9,6.5C894.9,239.8,895,240.3,895,241.2z"/>
	<path class="st6" d="M777,559.5c0-83.7,0-167.3,0-251c0-7.5,0-7.5,7.2-7.5c111.3,0,222.6,0,334,0c3.4,0,6.7,0.3,9.9,1.3
		c6.5,2,10.6,7.1,10.9,14c0.1,1,0,2,0,3c0,160.5,0,321,0,481.5c0,0.8,0,1.7,0,2.5c-0.3,9.1-6.2,14.8-15.3,14.8
		c-41.8,0-83.7,0-125.5,0c-71.3,0-142.7,0-214,0c-7.2,0-7.2,0-7.2-7C777,727.2,777,643.3,777,559.5z M782,559.4c0,82,0,164,0,245.9
		c0,7.7,0,7.7,7.6,7.7c110.3,0,220.6,0,330.9,0c10.9,0,13.5-2.6,13.5-13.6c0-159.6,0-319.3,0-478.9c0-1.3,0-2.7,0-4
		c0-4.6-2.5-7.4-6.5-9.2c-3-1.3-6.1-1.4-9.3-1.4c-109.6,0-219.3,0-328.9,0c-7.3,0-7.3,0-7.3,7.5C782,395.4,782,477.4,782,559.4z"/>
	<path class="st7" d="M1135.9,297c0.9-1.4,1.8-0.1,2.4,0.2c7.1,4.3,10.7,10.7,11.4,18.9c0.2,1.8,0.1,3.7,0.1,5.5
		c0,158.4-0.1,316.9,0.1,475.3c0,11.6-3,20.8-13,27.2c0,0,0.1-0.1,0.1-0.1c-0.8,0.1-1.8,0-2.1,1.1c0,0,0.2-0.1,0.2-0.1
		c-0.4,0-0.8,0-1.2,0.1c-0.3-1.8,1.2-2.1,2.2-2.8c7.1-4.7,10.4-11.5,10.6-19.8c0-1.7,0-3.3,0-5c0-158-0.1-316,0.1-474
		C1146.9,312.7,1144.6,303.7,1135.9,297z"/>
	<path class="st10" d="M1103.2,234c9.9,0.1,9.1-0.8,8.7,8.8c-0.8,17-1.9,34-2.9,51c-1.6,0-3.2,0-4.8,0
		C1103.9,273.8,1103.6,253.9,1103.2,234z"/>
	<path class="st9" d="M879.1,826.2c1.4,11.6,0.8,23.3,0.9,34.9c0,1.7,0.8,4.3-1.7,4.5c-3.2,0.2-2.1-2.8-2.2-4.5
		c-0.4-11.6-0.7-23.3-1.1-34.9C876.3,826.2,877.7,826.2,879.1,826.2z"/>
	<path class="st9" d="M961,826.1c0,11,0,22,0,33c0,1.7,0.8,4.3-1.7,4.5c-3.2,0.2-2.2-2.8-2.2-4.5c0-11-0.2-22-1.1-32.9
		C957.7,826.1,959.3,826.1,961,826.1z"/>
	<path class="st9" d="M1021,826.2c0,10.8,0.1,21.6,0,32.4c0,1.7,0.7,4.2-2.2,4.1c-2.3-0.1-1.8-2.5-1.8-4
		c-0.1-10.8-0.1-21.6-0.2-32.4C1018.3,826.2,1019.7,826.2,1021,826.2z"/>
	<path class="st8" d="M1133.9,825c0.4,0,0.8,0,1.2-0.1c-0.7,0.7-1.5,1.1-2.3,0.1C1133.2,825.1,1133.5,825,1133.9,825z"/>
	<path class="st11" d="M1087,279.7c0,7.1-0.6,7.6-6.2,7.4c-2.8-0.1-3.9-1.3-3.8-4c0.1-2,0-4,0-6c0.2-17.3-0.3-34.6-1-51.8
		c-0.2-4.5,3-6.8,7.4-5.6c2.1,0.6,1.5,2.3,1.6,3.7c1.4,12.9,0.9,25.9,1,38.8C1086,268.4,1085.9,274.7,1087,279.7z"/>
	<path class="st8" d="M1134.9,825c0.3-1.2,1.3-1,2.1-1.1C1136.9,825.4,1135.7,824.9,1134.9,825z"/>
	<path class="st1" d="M782,559.4c0-82,0-164,0-245.9c0-7.4,0-7.5,7.3-7.5c109.6,0,219.3,0,328.9,0c3.2,0,6.3,0,9.3,1.4
		c4,1.8,6.5,4.6,6.5,9.2c0,1.3,0,2.7,0,4c0,159.6,0,319.3,0,478.9c0,10.9-2.6,13.6-13.5,13.6c-110.3,0-220.6,0-330.9,0
		c-7.6,0-7.6,0-7.6-7.7C782,723.4,782,641.4,782,559.4z"/>
</g>
<g>
	<g>
		<path class="st12" d="M974.6,622c3.3-3.3,8.7-6.9,11.6-14.8c2.8-7.4,4.1-20.9,6.7-27.7c3.3-11.8,10-23.2,2-22.4
			c-7.6,0.7-10,8.1-12.9,13.4c-1.3,2-4.4,6.3-5,8.7c-0.1-4.1-2.2-15.9-2.6-27.9c-0.4-11.1-0.1-22.8-0.4-27.1
			c-0.4-5.7-0.3-11.1-1.7-15.3c-0.6-2-3.5-3.9-5-3.8c-3,0-4.9,2.7-5.3,5.2c-0.3,2-0.2,1.3-0.4,3.8c-0.3,3.2,0.1,7.4-0.2,11
			c-0.3,3.9,0.3,8.3,0,11.9c-0.4,7.4-1,14.1-1.2,15.5c0-2.7-1.2-15.6-1.7-27.9c-0.2-4.6-0.3-9.2-0.3-13.5c-0.1-3.5,0.1-7.1-0.3-9.8
			c-0.6-4.6-2.1-6.7-5.4-6.7c-2.2,0-5.4,1.6-6.5,6.7c-0.6,2.7-0.6,6.1-0.5,9.8c0.1,3.4,0.3,7.1,0.2,10.8c-0.2,14-0.5,28.8-1,33.1
			c-0.1-1.4-1.5-8.7-1.9-18.5c-0.1-3.9-0.4-8.5-0.6-12.9c-0.2-5.3-0.2-9.3-0.4-12.8c0-2.1-0.9-8.3-5-7.9c-2.2-0.3-4.5,1.2-5.4,7.1
			c-0.5,3.2-0.5,8.8-0.6,13.1c-0.2,8.2-0.5,15.3-0.1,22.6c0.2,4.5,0.2,8,0.3,10.3c0.1,0.6-1.2-3.8-1.8-9.8
			c-0.6-5.9-1.1-13.3-1.1-11.6c0-3-0.1-7.5-0.4-11.3c-0.2-2.9-0.1-6.1-3.2-5.9c-3.2,0.3-5.2,1.3-5.8,6.8c-0.4,3.5-0.5,11.2-0.6,14
			c0.3,7.1-1.5,23.6-2.4,28.3c-0.2,3.3-1.5,7.6-2.1,12.3c-1.2,10-0.1,21.6,1.3,27.6c2.6,9.4,9.5,13.7,9.1,20.1
			c-0.3,6.4,0,17.7,0,22.7s4.4,5.3,13.5,3.4c14.9-3.2,23,3.2,35.2-1.5c-1.6-14,1.5-22.4,1.4-27.4L974.6,622z"/>
		<path class="st13" d="M965.9,589c3.1-8.5,7-11.8,10.7-13.7"/>
		<path class="st14" d="M932.1,580.2c4.6-1.8,9.4-3.1,14.1-4.8c5.8-1.6,11.3-3.9,17.3-4.9c2.9-0.6,5.7-1.1,8.7-1.3 M923.9,625.5
			c0.6-0.4,1.3,0.3,1.9,0.4c0.9,0.3,1.8,0.5,2.7,0.4c1.8,0,3.6,0,5.4,0c2.1-0.1,3.9-0.2,5.6-1.4 M952.9,625.7
			c0.6,0.5,1.3,0.9,2.1,1.2c1.1,0.5,2.4,0.6,9.8,0c4.6,0.3,8.7-3.7,9.9-4.8"/>
	</g>
	<g>
		<path class="st15" d="M859.2,373.5h4.1v-25.3h-4.1v-0.5h7c0.3,0,0.7,0,1,0c0.3,0,0.7,0,1-0.1c0.3,0,0.7,0,1,0c0.3,0,0.7,0,1,0
			c1.4,0,2.7,0.2,3.9,0.5c1.2,0.3,2.2,0.8,3.1,1.4c0.9,0.6,1.6,1.4,2.1,2.2c0.5,0.9,0.7,1.8,0.7,2.9c0,1.1-0.3,2.1-0.9,3
			c-0.6,0.9-1.3,1.6-2.3,2.2c-0.9,0.6-2,1-3.3,1.4c-1.2,0.3-2.5,0.5-3.9,0.5c-0.3,0-0.8,0-1.3-0.1c-0.5-0.1-1-0.1-1.4-0.2v12.2h4.1
			v0.5h-11.9V373.5z M867,360.7c0.5,0.1,1,0.2,1.6,0.2c0.5,0,1,0.1,1.4,0.1c1.8,0,3.2-0.5,4.3-1.6c1-1.1,1.5-2.7,1.5-4.9
			c0-1.3-0.1-2.3-0.4-3.1c-0.2-0.8-0.6-1.5-1.2-2c-0.5-0.5-1.2-0.9-2.1-1.1c-0.9-0.2-1.9-0.3-3.1-0.3c-0.5,0-0.9,0-1.3,0
			c-0.4,0-0.7,0-0.9,0.1V360.7z"/>
		<path class="st15" d="M877.2,373.5h3.3l10-26.5h0.9l10.1,26.5h3.3v0.5h-11.4v-0.5h4.1l-3.9-10.3h-8.6l-3.9,10.3h4.1v0.5h-8V373.5z
			 M889.2,351.9l-4.1,10.8h8.1L889.2,351.9z"/>
		<path class="st15" d="M905.9,366h0.4c0.3,1.3,0.6,2.5,1.1,3.4c0.4,0.9,0.9,1.7,1.4,2.3c0.5,0.6,1.1,1,1.6,1.4
			c0.6,0.3,1.1,0.6,1.7,0.7c0.6,0.1,1.1,0.2,1.7,0.3c0.5,0,1,0,1.5,0c1.3,0,2.4-0.2,3.2-0.6c0.8-0.4,1.5-0.9,2-1.5
			c0.5-0.6,0.8-1.3,1-2c0.2-0.7,0.3-1.4,0.3-1.9c0-0.9-0.2-1.6-0.5-2.2c-0.3-0.6-0.7-1.1-1.2-1.6c-0.5-0.4-1-0.8-1.6-1.1
			c-0.6-0.3-1.1-0.5-1.6-0.6l-4.3-1.3c-2-0.6-3.5-1.4-4.5-2.4c-1-1-1.5-2.4-1.5-4.1c0-1.1,0.2-2.1,0.6-3.1c0.4-0.9,0.9-1.8,1.7-2.5
			c0.7-0.7,1.6-1.2,2.6-1.6c1-0.4,2.1-0.6,3.3-0.6c0.9,0,1.6,0.1,2.2,0.2c0.6,0.1,1.1,0.3,1.5,0.5c0.4,0.2,0.8,0.4,1.1,0.5
			c0.3,0.1,0.7,0.2,1,0.2c0.3,0,0.5,0,0.6-0.1c0.1-0.1,0.3-0.3,0.5-0.6h0.5v6.7h-0.4c-0.1-0.9-0.4-1.7-0.8-2.6
			c-0.4-0.8-0.8-1.6-1.4-2.2c-0.6-0.6-1.3-1.1-2.1-1.5c-0.8-0.4-1.7-0.6-2.8-0.6c-0.6,0-1.2,0.1-2,0.2c-0.7,0.2-1.4,0.4-2,0.8
			c-0.6,0.4-1.1,0.9-1.5,1.6c-0.4,0.6-0.6,1.5-0.6,2.4c0,0.8,0.2,1.5,0.5,2c0.3,0.6,0.7,1,1.2,1.4c0.5,0.4,1.1,0.7,1.7,1
			c0.6,0.3,1.3,0.5,1.9,0.7l4.5,1.4c0.5,0.1,1.1,0.3,1.8,0.6c0.7,0.2,1.4,0.6,2.1,1.1c0.7,0.5,1.3,1.1,1.7,2
			c0.5,0.8,0.7,1.8,0.7,3.1c0,1.2-0.2,2.3-0.6,3.3c-0.4,1-1.1,2-1.9,2.8c-0.8,0.8-1.8,1.4-3,1.9c-1.2,0.5-2.5,0.7-3.9,0.7
			c-0.5,0-1,0-1.4,0c-0.4,0-0.8,0-1.1-0.1c-0.3,0-0.7-0.1-1-0.2c-0.3-0.1-0.7-0.2-1.1-0.3c-0.5-0.1-1-0.3-1.6-0.5
			c-0.6-0.2-1.1-0.3-1.5-0.3c-0.4,0-0.6,0.1-0.8,0.2c-0.1,0.1-0.3,0.3-0.4,0.6h-0.6V366z"/>
		<path class="st15" d="M929.1,366h0.4c0.3,1.3,0.6,2.5,1.1,3.4c0.4,0.9,0.9,1.7,1.4,2.3c0.5,0.6,1.1,1,1.6,1.4
			c0.6,0.3,1.1,0.6,1.7,0.7c0.6,0.1,1.1,0.2,1.7,0.3c0.5,0,1,0,1.5,0c1.3,0,2.4-0.2,3.2-0.6c0.8-0.4,1.5-0.9,2-1.5
			c0.5-0.6,0.8-1.3,1-2c0.2-0.7,0.3-1.4,0.3-1.9c0-0.9-0.2-1.6-0.5-2.2c-0.3-0.6-0.7-1.1-1.2-1.6c-0.5-0.4-1-0.8-1.6-1.1
			c-0.6-0.3-1.1-0.5-1.6-0.6l-4.3-1.3c-2-0.6-3.5-1.4-4.5-2.4c-1-1-1.5-2.4-1.5-4.1c0-1.1,0.2-2.1,0.6-3.1c0.4-0.9,0.9-1.8,1.7-2.5
			c0.7-0.7,1.6-1.2,2.6-1.6c1-0.4,2.1-0.6,3.3-0.6c0.9,0,1.6,0.1,2.2,0.2c0.6,0.1,1.1,0.3,1.5,0.5c0.4,0.2,0.8,0.4,1.1,0.5
			c0.3,0.1,0.7,0.2,1,0.2c0.3,0,0.5,0,0.6-0.1c0.1-0.1,0.3-0.3,0.5-0.6h0.5v6.7h-0.4c-0.1-0.9-0.4-1.7-0.8-2.6
			c-0.4-0.8-0.8-1.6-1.4-2.2c-0.6-0.6-1.3-1.1-2.1-1.5c-0.8-0.4-1.7-0.6-2.8-0.6c-0.6,0-1.2,0.1-2,0.2c-0.7,0.2-1.4,0.4-2,0.8
			c-0.6,0.4-1.1,0.9-1.5,1.6c-0.4,0.6-0.6,1.5-0.6,2.4c0,0.8,0.2,1.5,0.5,2c0.3,0.6,0.7,1,1.2,1.4c0.5,0.4,1.1,0.7,1.7,1
			c0.6,0.3,1.3,0.5,1.9,0.7l4.5,1.4c0.5,0.1,1.1,0.3,1.8,0.6c0.7,0.2,1.4,0.6,2.1,1.1c0.7,0.5,1.3,1.1,1.7,2
			c0.5,0.8,0.7,1.8,0.7,3.1c0,1.2-0.2,2.3-0.6,3.3c-0.4,1-1.1,2-1.9,2.8c-0.8,0.8-1.8,1.4-3,1.9c-1.2,0.5-2.5,0.7-3.9,0.7
			c-0.5,0-1,0-1.4,0c-0.4,0-0.8,0-1.1-0.1c-0.3,0-0.7-0.1-1-0.2c-0.3-0.1-0.7-0.2-1.1-0.3c-0.5-0.1-1-0.3-1.6-0.5
			c-0.6-0.2-1.1-0.3-1.5-0.3c-0.4,0-0.6,0.1-0.8,0.2c-0.1,0.1-0.3,0.3-0.4,0.6h-0.6V366z"/>
		<path class="st15" d="M950.6,373.5h4.1v-25.3h-4.1v-0.5h7c0.3,0,0.7,0,1,0c0.3,0,0.7,0,1-0.1c0.3,0,0.7,0,1,0c0.3,0,0.7,0,1,0
			c1.4,0,2.7,0.2,3.9,0.5c1.2,0.3,2.2,0.8,3.1,1.4c0.9,0.6,1.6,1.4,2.1,2.2c0.5,0.9,0.7,1.8,0.7,2.9c0,1.1-0.3,2.1-0.9,3
			c-0.6,0.9-1.3,1.6-2.3,2.2c-0.9,0.6-2,1-3.3,1.4c-1.2,0.3-2.5,0.5-3.9,0.5c-0.3,0-0.8,0-1.3-0.1c-0.5-0.1-1-0.1-1.4-0.2v12.2h4.1
			v0.5h-11.9V373.5z M958.4,360.7c0.5,0.1,1,0.2,1.6,0.2c0.5,0,1,0.1,1.4,0.1c1.8,0,3.2-0.5,4.3-1.6c1-1.1,1.5-2.7,1.5-4.9
			c0-1.3-0.1-2.3-0.4-3.1c-0.2-0.8-0.6-1.5-1.2-2c-0.5-0.5-1.2-0.9-2.1-1.1c-0.9-0.2-1.9-0.3-3.1-0.3c-0.5,0-0.9,0-1.3,0
			c-0.4,0-0.7,0-0.9,0.1V360.7z"/>
		<path class="st15" d="M974.5,360.8c0-2,0.4-3.8,1.2-5.5c0.8-1.7,1.8-3.1,3-4.4c1.2-1.2,2.6-2.2,4.1-2.9c1.5-0.7,3.1-1.1,4.6-1.1
			c1.6,0,3.2,0.4,4.8,1.1c1.5,0.7,2.9,1.7,4.1,2.9c1.2,1.2,2.2,2.7,2.9,4.4c0.7,1.7,1.1,3.5,1.1,5.5c0,1.7-0.3,3.4-1,5.1
			c-0.7,1.7-1.6,3.1-2.7,4.4c-1.2,1.3-2.5,2.3-4.1,3.1s-3.2,1.2-5,1.2c-1.8,0-3.6-0.4-5.1-1.1c-1.6-0.8-2.9-1.8-4.1-3.1
			c-1.1-1.3-2-2.7-2.7-4.4C974.8,364.3,974.5,362.6,974.5,360.8z M978.8,360.8c0,2.2,0.1,4.2,0.4,5.8c0.3,1.7,0.8,3,1.5,4.1
			c0.7,1.1,1.6,1.9,2.7,2.5c1.1,0.5,2.4,0.8,4,0.8c1.6,0,2.9-0.3,4-0.8c1.1-0.5,2-1.4,2.7-2.5c0.7-1.1,1.2-2.5,1.5-4.1
			c0.3-1.7,0.4-3.6,0.4-5.8c0-1.7-0.1-3.3-0.3-4.9c-0.2-1.6-0.6-3-1.3-4.3s-1.5-2.2-2.6-3c-1.1-0.7-2.6-1.1-4.4-1.1
			s-3.3,0.4-4.4,1.1c-1.1,0.7-2,1.7-2.6,3s-1.1,2.7-1.3,4.3C978.9,357.4,978.8,359.1,978.8,360.8z"/>
		<path class="st15" d="M1002.4,373.5h4.1v-25.3h-4.1v-0.5h7c0.3,0,0.6,0,0.9,0c0.3,0,0.6,0,0.9-0.1c0.3,0,0.6,0,0.9,0
			c0.3,0,0.6,0,0.9,0c1.5,0,2.7,0.1,3.8,0.2c1.1,0.2,2.1,0.6,3.1,1.4c0.9,0.7,1.5,1.4,1.8,2.3c0.4,0.8,0.5,1.6,0.5,2.4
			c0,0.4-0.1,0.8-0.2,1.4c-0.1,0.6-0.4,1.2-0.9,1.8c-0.5,0.6-1.1,1.2-2,1.7c-0.9,0.5-2,0.8-3.4,1v0.1c0.4,0,0.9,0.1,1.6,0.3
			c0.7,0.1,1.4,0.4,2.1,0.7c0.7,0.3,1.3,0.7,1.9,1.3c0.6,0.5,1,1.2,1.3,2.1c0.1,0.5,0.3,1.1,0.3,1.7c0.1,0.6,0.1,1.3,0.1,1.9
			c0,0.7,0.1,1.3,0.1,1.9c0,0.6,0.1,1.1,0.2,1.6c0.1,0.6,0.4,1.2,0.7,1.7c0.3,0.5,0.8,0.8,1.6,0.8c0.3,0,0.7-0.1,1-0.2
			c0.3-0.1,0.7-0.3,0.9-0.6l0.3,0.4c-0.1,0.1-0.3,0.2-0.4,0.3c-0.2,0.1-0.4,0.2-0.6,0.3c-0.2,0.1-0.5,0.2-0.9,0.2
			c-0.4,0.1-0.8,0.1-1.3,0.1c-1,0-1.8-0.1-2.5-0.4c-0.7-0.2-1.2-0.6-1.6-1.1c-0.4-0.5-0.7-1.1-0.9-1.8c-0.2-0.7-0.3-1.5-0.4-2.5
			l-0.3-3.4c-0.1-1.2-0.3-2.2-0.7-2.9c-0.4-0.7-0.9-1.2-1.4-1.5c-0.5-0.3-1.1-0.5-1.6-0.6c-0.6-0.1-1.1-0.1-1.5-0.1h-3.7v13.4h4.1
			v0.5h-11.9V373.5z M1010.2,359.6h3.4c0.7,0,1.3-0.1,1.9-0.3c0.6-0.2,1.1-0.5,1.5-0.9c0.4-0.4,0.7-1,0.9-1.8
			c0.2-0.7,0.3-1.7,0.3-2.8c0-1.3-0.2-2.3-0.5-3.1c-0.3-0.8-0.8-1.4-1.3-1.8c-0.5-0.4-1.1-0.7-1.8-0.8c-0.7-0.1-1.3-0.2-1.9-0.2
			c-0.4,0-0.9,0-1.3,0c-0.5,0-0.8,0-1.2,0.1V359.6z"/>
		<path class="st15" d="M1032.1,373.5h4.1v-25.3h-2.1c-0.5,0-1,0-1.7,0.1c-0.6,0.1-1.2,0.3-1.9,0.7c-0.6,0.4-1.2,1-1.8,1.9
			c-0.6,0.9-1.1,2-1.5,3.5h-0.4v-6.8h22.5v6.8h-0.4c-0.4-1.5-0.9-2.7-1.5-3.5c-0.6-0.9-1.2-1.5-1.8-1.9c-0.6-0.4-1.3-0.6-1.9-0.7
			c-0.6-0.1-1.2-0.1-1.7-0.1h-2.1v25.3h4.1v0.5h-11.9V373.5z"/>
		<path class="st15" d="M864.3,414.6h3.8v-23.4h-2c-0.5,0-1,0-1.5,0.1c-0.6,0.1-1.1,0.3-1.7,0.7c-0.6,0.4-1.1,0.9-1.7,1.7
			c-0.5,0.8-1,1.9-1.4,3.3h-0.4v-6.3h20.8v6.3h-0.4c-0.4-1.4-0.9-2.5-1.4-3.3c-0.5-0.8-1.1-1.4-1.7-1.7c-0.6-0.4-1.2-0.6-1.7-0.7
			c-0.6-0.1-1.1-0.1-1.5-0.1h-2v23.4h3.8v0.5h-11V414.6z"/>
		<path class="st15" d="M882.1,402.9c0-1.8,0.4-3.5,1.1-5.1c0.7-1.6,1.6-2.9,2.8-4c1.1-1.1,2.4-2,3.8-2.7c1.4-0.7,2.8-1,4.2-1
			c1.5,0,3,0.3,4.4,1c1.4,0.7,2.7,1.5,3.8,2.7c1.1,1.1,2,2.5,2.7,4c0.7,1.6,1,3.2,1,5.1c0,1.6-0.3,3.2-0.9,4.7
			c-0.6,1.5-1.5,2.9-2.5,4.1c-1.1,1.2-2.3,2.1-3.8,2.9c-1.5,0.7-3,1.1-4.7,1.1c-1.7,0-3.3-0.4-4.8-1.1c-1.5-0.7-2.7-1.6-3.8-2.8
			c-1.1-1.2-1.9-2.5-2.5-4.1C882.4,406.1,882.1,404.5,882.1,402.9z M886.1,402.9c0,2.1,0.1,3.8,0.4,5.4c0.3,1.5,0.7,2.8,1.4,3.8
			c0.6,1,1.5,1.8,2.5,2.3c1,0.5,2.2,0.8,3.7,0.8c1.5,0,2.7-0.3,3.7-0.8c1-0.5,1.8-1.3,2.5-2.3c0.6-1,1.1-2.3,1.4-3.8
			c0.3-1.5,0.4-3.3,0.4-5.4c0-1.6-0.1-3.1-0.3-4.6c-0.2-1.5-0.6-2.8-1.2-3.9c-0.6-1.2-1.4-2.1-2.4-2.8c-1-0.7-2.4-1-4.1-1
			c-1.7,0-3,0.3-4.1,1c-1,0.7-1.8,1.6-2.4,2.8c-0.6,1.2-1,2.5-1.2,3.9C886.2,399.8,886.1,401.3,886.1,402.9z"/>
		<path class="st15" d="M915.8,390.7h11v0.5H923v16.5c0,1.4,0.1,2.5,0.4,3.5c0.2,0.9,0.6,1.7,1.1,2.3c0.5,0.6,1.1,1,1.8,1.3
			c0.7,0.3,1.5,0.4,2.4,0.4c1.3,0,2.4-0.2,3.4-0.6c1-0.4,1.8-1,2.5-2c0.2-0.3,0.4-0.6,0.6-0.9c0.2-0.3,0.3-0.6,0.4-1
			c0.1-0.4,0.2-0.9,0.3-1.4c0.1-0.6,0.1-1.3,0.1-2.1v-15.9h-3.8v-0.5h8.1v0.5h-3.8v16.6c0,1-0.1,1.8-0.3,2.6
			c-0.2,0.8-0.6,1.6-1.3,2.4c-0.6,0.8-1.5,1.5-2.6,2c-1.1,0.5-2.5,0.8-4.3,0.8c-2.7,0-4.8-0.7-6.3-2c-1.5-1.3-2.2-3.4-2.2-6.2v-16.2
			h-3.8V390.7z"/>
		<path class="st15" d="M940.7,414.6h3.8v-23.4h-3.8v-0.5h11v0.5h-3.8v23.4h6.1c2,0,3.6-0.6,4.7-1.9c1.1-1.3,2-3,2.5-5.1h0.4v7.5
			h-20.9V414.6z"/>
		<path class="st15" d="M964.4,407.7h0.4c0.3,1.2,0.6,2.3,1,3.1c0.4,0.8,0.8,1.5,1.3,2.1c0.5,0.5,1,1,1.5,1.3
			c0.5,0.3,1.1,0.5,1.6,0.7c0.5,0.1,1.1,0.2,1.5,0.2c0.5,0,1,0,1.4,0c1.2,0,2.2-0.2,3-0.5c0.8-0.4,1.4-0.8,1.8-1.4
			c0.5-0.6,0.8-1.2,1-1.8c0.2-0.7,0.3-1.3,0.3-1.8c0-0.8-0.1-1.5-0.4-2.1c-0.3-0.6-0.7-1.1-1.1-1.5c-0.5-0.4-1-0.7-1.5-1
			c-0.5-0.3-1-0.4-1.5-0.6l-3.9-1.2c-1.8-0.6-3.2-1.3-4.2-2.3c-0.9-0.9-1.4-2.2-1.4-3.8c0-1,0.2-2,0.5-2.9c0.4-0.9,0.9-1.6,1.5-2.3
			c0.7-0.6,1.5-1.1,2.4-1.5c0.9-0.4,1.9-0.5,3-0.5c0.8,0,1.5,0.1,2,0.2c0.5,0.1,1,0.3,1.4,0.5c0.4,0.2,0.7,0.3,1,0.5
			c0.3,0.1,0.6,0.2,0.9,0.2c0.3,0,0.5,0,0.6-0.1c0.1-0.1,0.2-0.3,0.4-0.6h0.5v6.2h-0.4c-0.1-0.8-0.4-1.6-0.7-2.4
			c-0.3-0.8-0.8-1.4-1.3-2c-0.5-0.6-1.2-1-1.9-1.4c-0.7-0.4-1.6-0.5-2.6-0.5c-0.5,0-1.2,0.1-1.8,0.2c-0.7,0.1-1.3,0.4-1.8,0.8
			c-0.6,0.4-1,0.8-1.4,1.4c-0.4,0.6-0.6,1.3-0.6,2.3c0,0.7,0.1,1.4,0.4,1.9c0.3,0.5,0.7,0.9,1.1,1.3c0.5,0.4,1,0.7,1.6,0.9
			c0.6,0.2,1.2,0.5,1.8,0.6l4.1,1.3c0.4,0.1,1,0.3,1.6,0.5c0.7,0.2,1.3,0.6,1.9,1c0.6,0.5,1.2,1.1,1.6,1.8s0.7,1.7,0.7,2.9
			c0,1.1-0.2,2.1-0.6,3.1c-0.4,1-1,1.8-1.7,2.6c-0.8,0.7-1.7,1.3-2.7,1.8c-1.1,0.4-2.3,0.7-3.6,0.7c-0.5,0-0.9,0-1.3,0
			c-0.4,0-0.7,0-1-0.1c-0.3,0-0.6-0.1-1-0.2c-0.3-0.1-0.7-0.1-1.1-0.3c-0.5-0.1-0.9-0.3-1.5-0.5c-0.5-0.2-1-0.3-1.4-0.3
			c-0.3,0-0.6,0.1-0.7,0.2c-0.1,0.1-0.2,0.3-0.3,0.5h-0.5V407.7z"/>
		<path class="st15" d="M989.5,414.6h3.8v-23.4h-2c-0.5,0-1,0-1.5,0.1c-0.6,0.1-1.1,0.3-1.7,0.7c-0.6,0.4-1.1,0.9-1.7,1.7
			c-0.5,0.8-1,1.9-1.4,3.3h-0.4v-6.3h20.8v6.3h-0.4c-0.4-1.4-0.9-2.5-1.4-3.3c-0.5-0.8-1.1-1.4-1.7-1.7c-0.6-0.4-1.2-0.6-1.7-0.7
			c-0.6-0.1-1.1-0.1-1.5-0.1h-2v23.4h3.8v0.5h-11V414.6z"/>
		<path class="st15" d="M1006.3,414.6h3.8v-23.4h-3.8v-0.5h19.6v5.9h-0.4c-0.3-0.9-0.6-1.7-1-2.3c-0.3-0.7-0.8-1.2-1.2-1.7
			c-0.5-0.5-1.1-0.8-1.7-1c-0.7-0.2-1.5-0.3-2.4-0.3h-5.7v10.6h2.2c0.8,0,1.4-0.1,1.9-0.2c0.5-0.1,1-0.4,1.4-0.8
			c0.4-0.4,0.7-0.9,1-1.5c0.3-0.7,0.5-1.5,0.8-2.5h0.4v10.7h-0.4c-0.2-0.7-0.3-1.3-0.5-1.9c-0.2-0.6-0.4-1.2-0.7-1.6
			c-0.3-0.5-0.7-0.9-1.2-1.1c-0.5-0.3-1.2-0.4-2-0.4h-2.8v12.4h6.5c1.3,0,2.3-0.3,3.1-0.8c0.8-0.5,1.5-1.2,2-1.9
			c0.5-0.7,0.9-1.5,1.2-2.3c0.3-0.8,0.4-1.5,0.5-2h0.4v7.5h-20.9V414.6z"/>
		<path class="st15" d="M1029.1,414.6h3.8v-23.4h-3.8v-0.5h6.5c0.3,0,0.5,0,0.8,0c0.3,0,0.5,0,0.8-0.1c0.3,0,0.5,0,0.8,0
			c0.3,0,0.5,0,0.8,0c1.3,0,2.5,0.1,3.6,0.2c1,0.1,2,0.6,2.9,1.3c0.8,0.6,1.4,1.3,1.7,2.1c0.3,0.8,0.5,1.5,0.5,2.2
			c0,0.3-0.1,0.8-0.2,1.3c-0.1,0.5-0.4,1.1-0.8,1.6c-0.4,0.6-1,1.1-1.8,1.5c-0.8,0.5-1.9,0.8-3.2,0.9v0.1c0.4,0,0.9,0.1,1.5,0.3
			c0.6,0.1,1.3,0.3,1.9,0.6c0.7,0.3,1.2,0.7,1.8,1.2c0.5,0.5,0.9,1.1,1.2,1.9c0.1,0.5,0.2,1,0.3,1.6c0.1,0.6,0.1,1.2,0.1,1.8
			c0,0.6,0.1,1.2,0.1,1.8c0,0.6,0.1,1.1,0.2,1.4c0.1,0.6,0.4,1.1,0.7,1.6c0.3,0.5,0.8,0.7,1.4,0.7c0.3,0,0.6-0.1,0.9-0.2
			c0.3-0.1,0.6-0.3,0.9-0.5l0.3,0.4c-0.1,0.1-0.2,0.2-0.4,0.3c-0.1,0.1-0.3,0.2-0.6,0.3c-0.2,0.1-0.5,0.2-0.8,0.2
			c-0.3,0.1-0.7,0.1-1.2,0.1c-0.9,0-1.7-0.1-2.3-0.3c-0.6-0.2-1.1-0.6-1.5-1c-0.4-0.4-0.6-1-0.8-1.6c-0.2-0.7-0.3-1.4-0.4-2.3
			l-0.2-3.1c-0.1-1.1-0.3-2-0.7-2.7c-0.4-0.6-0.8-1.1-1.3-1.4c-0.5-0.3-1-0.5-1.5-0.5c-0.5-0.1-1-0.1-1.4-0.1h-3.4v12.4h3.8v0.5h-11
			V414.6z M1036.3,401.8h3.2c0.6,0,1.2-0.1,1.7-0.2c0.5-0.2,1-0.4,1.4-0.8c0.4-0.4,0.7-0.9,0.9-1.6c0.2-0.7,0.3-1.6,0.3-2.6
			c0-1.2-0.2-2.1-0.5-2.9s-0.7-1.3-1.2-1.6c-0.5-0.4-1-0.6-1.6-0.7c-0.6-0.1-1.2-0.2-1.8-0.2c-0.4,0-0.8,0-1.3,0
			c-0.4,0-0.8,0-1.1,0.1V401.8z"/>
	</g>
	<path class="st15" d="M956.1,774.6c-6.8,0-13.6-0.1-20.5,0.1c-3.1,0.1-4-0.9-3.9-4c0.2-6.8,0.1-13.6,0-20.5c0-2.5,0.7-3.5,3.4-3.5
		c14,0.1,27.9,0.1,41.9,0c2.4,0,3.2,0.9,3.2,3.2c-0.1,7.2-0.1,14.3,0,21.5c0.1,2.8-1.2,3.3-3.6,3.2
		C969.8,774.5,962.9,774.6,956.1,774.6z"/>
</g>
</svg>
